<svg xmlns="http://www.w3.org/2000/svg" width="73" height="78" fill="none" viewBox="0 0 73 78"><path fill="#1BA0E2" d="M.084 20.368A23.17 23.17 0 0 1 1.621 14a23.168 23.168 0 0 0 3.875 15.837 23.099 23.099 0 0 0 13.34 9.344 23.063 23.063 0 0 0 16.18-1.789A23.123 23.123 0 0 0 46 25.358a23.103 23.103 0 0 1-3.154 9.185 23.06 23.06 0 0 1-6.648 7.071c.854 2.686 2.702 6.64 6.337 7.304 0 0-8.365 1.006-13.306-4.024a23.06 23.06 0 0 1-20.987-4.591 23.137 23.137 0 0 1-6.52-8.952A23.174 23.174 0 0 1 .103 20.388l-.02-.02Z"/><path fill="#85D6FF" d="M35.59 37.091a23.552 23.552 0 0 1-12.282 2.89 23.505 23.505 0 0 1-12.006-3.854 22.973 22.973 0 0 1-8.185-9.46 22.54 22.54 0 0 1-1.95-12.276C3.24 9.282 7.115 5.08 12.081 2.554A23.586 23.586 0 0 1 28.208.638c5.435 1.29 10.215 4.465 13.464 8.94a22.596 22.596 0 0 1 4.226 15.432c0 .19 0 .378-.07.577-1.964 4.881-5.58 8.945-10.239 11.504Z"/><ellipse cx="23" cy="58" fill="#D6F1FF" rx="19" ry="5"/><ellipse cx="46" cy="57.5" fill="#D6F1FF" rx="2" ry="1.5"/><path fill="#D6F1FF" fill-rule="evenodd" d="M26 4.877c-3.158-.433-6.091.135-7.605.858a1 1 0 1 1-.862-1.805c1.915-.914 5.25-1.513 8.738-1.035 3.517.482 7.304 2.075 9.974 5.679a1 1 0 1 1-1.607 1.19C32.367 6.7 29.129 5.305 26 4.877Z" clip-rule="evenodd"/><circle cx="38" cy="13" r="1" fill="#D6F1FF"/><path fill="#1BA0E2" d="M20.5 25.969c0 .81.658 1.468 1.469 1.468h.218c.708 0 1.282-.573 1.282-1.28 0-3.75 5.531-4.282 5.531-9.438C29 13.25 26 11 22.469 11c-1.983 0-3.51.678-4.44 1.244-.622.378-.689 1.19-.24 1.764.492.63 1.419.733 2.143.394.623-.293 1.432-.558 2.318-.558 2.063 0 3.563 1.344 3.563 3.094 0 3.593-5.313 4.28-5.313 9.03Zm-.063 6.015c0 .837.68 1.516 1.516 1.516h.063a1.516 1.516 0 0 0 0-3.031h-.063c-.837 0-1.515.678-1.515 1.515Zm4.647 3.384A23.167 23.167 0 0 1 26.621 29a23.168 23.168 0 0 0 3.875 15.837 23.099 23.099 0 0 0 13.34 9.344 23.063 23.063 0 0 0 16.18-1.789A23.123 23.123 0 0 0 71 40.358a23.103 23.103 0 0 1-3.154 9.185 23.06 23.06 0 0 1-6.648 7.071c.854 2.686 2.702 6.64 6.337 7.304 0 0-8.365 1.006-13.306-4.024a23.06 23.06 0 0 1-20.987-4.591 23.135 23.135 0 0 1-6.52-8.953 23.174 23.174 0 0 1-1.618-10.962l-.02-.02Z"/><path fill="#85D6FF" d="M60.59 52.091a23.552 23.552 0 0 1-12.282 2.89 23.505 23.505 0 0 1-12.006-3.854 22.973 22.973 0 0 1-8.185-9.46 22.54 22.54 0 0 1-1.95-12.276c2.073-5.109 5.948-9.311 10.914-11.837a23.586 23.586 0 0 1 16.127-1.916c5.435 1.29 10.215 4.465 13.464 8.94a22.596 22.596 0 0 1 4.226 15.432c0 .19 0 .378-.07.577-1.964 4.881-5.58 8.945-10.239 11.504Z"/><ellipse cx="48" cy="73" fill="#D6F1FF" rx="19" ry="5"/><ellipse cx="71" cy="72.5" fill="#D6F1FF" rx="2" ry="1.5"/><path fill="#D6F1FF" fill-rule="evenodd" d="M51 19.877c-3.158-.433-6.091.135-7.605.858a1 1 0 0 1-.862-1.805c1.916-.915 5.25-1.513 8.738-1.035 3.517.482 7.304 2.075 9.974 5.679a1 1 0 1 1-1.607 1.19C57.367 21.7 54.129 20.305 51 19.877Z" clip-rule="evenodd"/><circle cx="63" cy="28" r="1" fill="#D6F1FF"/><path fill="#1BA0E2" d="M45.5 40.969c0 .81.658 1.468 1.469 1.468h.218c.708 0 1.282-.573 1.282-1.28 0-3.75 5.531-4.282 5.531-9.438C54 28.25 51 26 47.469 26c-1.983 0-3.51.678-4.44 1.244-.622.378-.689 1.19-.24 1.764.492.63 1.419.733 2.143.394.623-.293 1.432-.558 2.318-.558 2.063 0 3.563 1.343 3.563 3.093 0 3.594-5.313 4.282-5.313 9.032Zm-.063 6.015c0 .837.68 1.516 1.516 1.516h.063a1.516 1.516 0 0 0 0-3.031h-.063c-.837 0-1.516.678-1.516 1.515Z"/></svg>